<svg xmlns="http://www.w3.org/2000/svg" width="24" height="24" viewBox="0 0 24 24">
  <g id="Group_5" data-name="Group 5" transform="translate(-928 -238)">
    <rect id="Rectangle_4" data-name="Rectangle 4" width="24" height="24" transform="translate(928 238)" fill="none"/>
    <g id="user_3_" data-name="user (3)" transform="translate(900 240)">
      <g id="Group_2" data-name="Group 2" transform="translate(34.516)">
        <g id="Group_1" data-name="Group 1" transform="translate(0)">
          <path id="Path_1" data-name="Path 1" d="M126.273,0a5.273,5.273,0,1,0,5.273,5.273A5.279,5.279,0,0,0,126.273,0Z" transform="translate(-121)" fill="#fff"/>
        </g>
      </g>
      <g id="Group_4" data-name="Group 4" transform="translate(31 11.719)">
        <g id="Group_3" data-name="Group 3" transform="translate(0)">
          <path id="Path_2" data-name="Path 2" d="M46.35,302.273A7.518,7.518,0,0,0,40.961,300H38.617a7.518,7.518,0,0,0-5.389,2.273A7.685,7.685,0,0,0,31,307.7a.586.586,0,0,0,.586.586H47.992a.586.586,0,0,0,.586-.586A7.685,7.685,0,0,0,46.35,302.273Z" transform="translate(-31 -300)" fill="#fff"/>
        </g>
      </g>
    </g>
  </g>
</svg>
