<svg id="cancel" xmlns="http://www.w3.org/2000/svg" width="60" height="60" viewBox="0 0 60 60">
  <path id="Path_408" data-name="Path 408" d="M30,0A30,30,0,1,0,60,30,30.034,30.034,0,0,0,30,0Zm0,54.545A24.545,24.545,0,1,1,54.545,30,24.573,24.573,0,0,1,30,54.545Z" fill="#bf5b04"/>
  <path id="Path_409" data-name="Path 409" d="M114.159,87.159a2.727,2.727,0,0,0-3.857,0L100.66,96.8l-9.642-9.642a2.727,2.727,0,0,0-3.857,3.857l9.642,9.642L87.16,110.3a2.727,2.727,0,1,0,3.857,3.857l9.642-9.642,9.642,9.642a2.727,2.727,0,0,0,3.857-3.857l-9.642-9.642,9.642-9.642A2.727,2.727,0,0,0,114.159,87.159Z" transform="translate(-70.659 -70.659)" fill="#bf5b04"/>
</svg>
