<svg id="certificate" xmlns="http://www.w3.org/2000/svg" width="20" height="20" viewBox="0 0 20 20">
  <g id="Group_1407" data-name="Group 1407">
    <g id="Group_1406" data-name="Group 1406">
      <path id="Path_285" data-name="Path 285" d="M18.752,0H1.252A1.25,1.25,0,0,0,0,1.25V15.417a1.25,1.25,0,0,0,1.25,1.25h10v-.833h-10a.417.417,0,0,1-.417-.417V1.25A.417.417,0,0,1,1.252.833h17.5a.417.417,0,0,1,.417.417V15.417a.417.417,0,0,1-.417.417h-.833v.833h.833A1.25,1.25,0,0,0,20,15.417V1.25A1.25,1.25,0,0,0,18.752,0Z" transform="translate(-0.002)" fill="#9070b8"/>
    </g>
  </g>
  <g id="Group_1409" data-name="Group 1409" transform="translate(2.083 2.083)">
    <g id="Group_1408" data-name="Group 1408">
      <path id="Path_286" data-name="Path 286" d="M68.752,55.416a1.667,1.667,0,0,1-1.667-1.667.417.417,0,0,0-.417-.417H55.835a.417.417,0,0,0-.417.417,1.667,1.667,0,0,1-1.667,1.667.417.417,0,0,0-.417.417v7.5a.417.417,0,0,0,.417.417,1.667,1.667,0,0,1,1.667,1.667.417.417,0,0,0,.417.417h5.417V65H56.217a2.507,2.507,0,0,0-2.049-2.049V56.215a2.507,2.507,0,0,0,2.049-2.049H66.286a2.507,2.507,0,0,0,2.049,2.049v3.368h.833v-3.75A.417.417,0,0,0,68.752,55.416Z" transform="translate(-53.335 -53.333)" fill="#9070b8"/>
    </g>
  </g>
  <g id="Group_1411" data-name="Group 1411" transform="translate(10.833 8.75)">
    <g id="Group_1410" data-name="Group 1410">
      <path id="Path_287" data-name="Path 287" d="M281.086,224a3.75,3.75,0,1,0,3.75,3.75A3.75,3.75,0,0,0,281.086,224Zm0,6.667A2.917,2.917,0,1,1,284,227.75,2.917,2.917,0,0,1,281.086,230.667Z" transform="translate(-277.336 -224)" fill="#9070b8"/>
    </g>
  </g>
  <g id="Group_1413" data-name="Group 1413" transform="translate(12.083 15)">
    <g id="Group_1412" data-name="Group 1412">
      <path id="Path_288" data-name="Path 288" d="M313.5,384v3.716l-1.406-1.125a.417.417,0,0,0-.521,0l-1.406,1.125V384h-.833v4.583a.417.417,0,0,0,.677.325l1.823-1.458,1.823,1.458a.417.417,0,0,0,.677-.325V384Z" transform="translate(-309.336 -384)" fill="#9070b8"/>
    </g>
  </g>
  <g id="Group_1415" data-name="Group 1415" transform="translate(5.417 4.167)">
    <g id="Group_1414" data-name="Group 1414">
      <path id="Path_289" data-name="Path 289" d="M147.419,106.667h-8.333a.417.417,0,0,0-.417.417v1.667a.417.417,0,0,0,.417.417h8.333a.417.417,0,0,0,.417-.417v-1.667A.417.417,0,0,0,147.419,106.667ZM147,108.334h-7.5V107.5H147Z" transform="translate(-138.669 -106.667)" fill="#9070b8"/>
    </g>
  </g>
  <g id="Group_1417" data-name="Group 1417" transform="translate(5 7.917)">
    <g id="Group_1416" data-name="Group 1416">
      <rect id="Rectangle_39" data-name="Rectangle 39" width="0.833" height="0.833" fill="#9070b8"/>
    </g>
  </g>
  <g id="Group_1419" data-name="Group 1419" transform="translate(6.667 7.917)">
    <g id="Group_1418" data-name="Group 1418">
      <rect id="Rectangle_40" data-name="Rectangle 40" width="0.833" height="0.833" fill="#9070b8"/>
    </g>
  </g>
  <g id="Group_1421" data-name="Group 1421" transform="translate(5 9.583)">
    <g id="Group_1420" data-name="Group 1420">
      <rect id="Rectangle_41" data-name="Rectangle 41" width="5" height="0.833" fill="#9070b8"/>
    </g>
  </g>
  <g id="Group_1423" data-name="Group 1423" transform="translate(12.5 10.417)">
    <g id="Group_1422" data-name="Group 1422">
      <path id="Path_290" data-name="Path 290" d="M322.086,266.667a2.083,2.083,0,1,0,2.083,2.083A2.083,2.083,0,0,0,322.086,266.667Zm0,3.333a1.25,1.25,0,1,1,1.25-1.25A1.25,1.25,0,0,1,322.086,270Z" transform="translate(-320.003 -266.667)" fill="#9070b8"/>
    </g>
  </g>
  <g id="Group_1425" data-name="Group 1425" transform="translate(2.083 13.75)">
    <g id="Group_1424" data-name="Group 1424">
      <rect id="Rectangle_42" data-name="Rectangle 42" width="0.833" height="0.833" fill="#9070b8"/>
    </g>
  </g>
  <g id="Group_1427" data-name="Group 1427" transform="translate(17.083 2.083)">
    <g id="Group_1426" data-name="Group 1426">
      <rect id="Rectangle_43" data-name="Rectangle 43" width="0.833" height="0.833" fill="#9070b8"/>
    </g>
  </g>
  <g id="Group_1429" data-name="Group 1429" transform="translate(2.083 2.083)">
    <g id="Group_1428" data-name="Group 1428">
      <rect id="Rectangle_44" data-name="Rectangle 44" width="0.833" height="0.833" fill="#9070b8"/>
    </g>
  </g>
</svg>
