<svg id="check" xmlns="http://www.w3.org/2000/svg" width="60" height="60" viewBox="0 0 60 60">
  <path id="Path_406" data-name="Path 406" d="M30,0A30,30,0,1,0,60,30,30.034,30.034,0,0,0,30,0Zm0,54.545A24.545,24.545,0,1,1,54.545,30,24.573,24.573,0,0,1,30,54.545Z" fill="#57a3c2"/>
  <path id="Path_407" data-name="Path 407" d="M104.676,103.07,89.248,118.5l-7.071-7.071a2.727,2.727,0,1,0-3.857,3.857l9,9a2.727,2.727,0,0,0,1.928.8h0a2.727,2.727,0,0,0,1.928-.8l17.357-17.356a2.727,2.727,0,0,0-3.857-3.857Z" transform="translate(-63.427 -83.676)" fill="#57a3c2"/>
</svg>
