<svg xmlns="http://www.w3.org/2000/svg" width="16.844" height="14.1" viewBox="0 0 16.844 14.1">
  <g id="Group_1636" data-name="Group 1636" transform="translate(-5.461 -7.534)">
    <path id="Path_412" data-name="Path 412" d="M19.966,14.934H7.795V10.956H5.461V16.1A1.169,1.169,0,0,0,6.63,17.273H21.135A1.167,1.167,0,0,0,22.3,16.1V10.956H19.969l0,3.978Z" transform="translate(0 4.362)" fill="#fff"/>
    <path id="Path_413" data-name="Path 413" d="M7.717,14.19l3.348,4.044a.369.369,0,0,0,.562.032c.394-.4,3.246-4.176,3.246-4.176s.51-.507-.161-.507H12.967V7.773s.007-.239-.307-.239H10.006c-.43,0-.357.284-.357.284V13.71H7.765C7.208,13.71,7.717,14.19,7.717,14.19Z" transform="translate(2.605 0)" fill="#fff"/>
  </g>
</svg>
