<svg xmlns="http://www.w3.org/2000/svg" width="20" height="18.324" viewBox="0 0 20 18.324">
  <g id="filter" transform="translate(-64.267 -80.334)">
    <path id="Path_293" data-name="Path 293" d="M83.485,82H71.569a2.464,2.464,0,0,0-4.66,0h-1.86a.776.776,0,1,0,0,1.551h1.86a2.464,2.464,0,0,0,4.66,0H83.485a.776.776,0,1,0,0-1.551ZM69.239,83.657a.886.886,0,1,1,.894-.886A.891.891,0,0,1,69.239,83.657Z" transform="translate(0)" fill="#464646"/>
    <path id="Path_294" data-name="Path 294" d="M83.485,210.528h-1.86a2.464,2.464,0,0,0-4.66,0H65.049a.776.776,0,1,0,0,1.551H76.965a2.464,2.464,0,0,0,4.66,0h1.86a.776.776,0,1,0,0-1.551Zm-4.19,1.661a.886.886,0,1,1,.894-.886A.891.891,0,0,1,79.295,212.19Z" transform="translate(0 -121.808)" fill="#464646"/>
    <path id="Path_295" data-name="Path 295" d="M83.485,339.061H74.921a2.464,2.464,0,0,0-4.66,0H65.049a.776.776,0,1,0,0,1.551h5.212a2.464,2.464,0,0,0,4.66,0h8.564a.776.776,0,1,0,0-1.551Zm-10.894,1.661a.886.886,0,1,1,.894-.886A.891.891,0,0,1,72.591,340.723Z" transform="translate(0 -243.616)" fill="#464646"/>
  </g>
</svg>
