<svg xmlns="http://www.w3.org/2000/svg" width="24" height="24" viewBox="0 0 24 24">
  <g id="Group_1613" data-name="Group 1613" transform="translate(-2224 -1615)">
    <rect id="Rectangle_462" data-name="Rectangle 462" width="24" height="24" transform="translate(2224 1615)" fill="none"/>
    <g id="image-gallery" transform="translate(2226 1616)">
      <g id="Group_1613-2" data-name="Group 1613" transform="translate(0 8.417)">
        <path id="Path_402" data-name="Path 402" d="M14.544,21.617a1.662,1.662,0,0,1-.425-.055L1.233,18.111A1.682,1.682,0,0,1,.055,16.069l1.626-6.06a.417.417,0,0,1,.8.215L.861,16.283a.846.846,0,0,0,.592,1.024l12.881,3.449a.83.83,0,0,0,1.014-.587L16,17.758a.417.417,0,0,1,.8.217l-.65,2.408a1.664,1.664,0,0,1-1.609,1.234Z" transform="translate(0 -9.701)" fill="#2c3e50"/>
      </g>
      <g id="Group_1614" data-name="Group 1614" transform="translate(3.333 2)">
        <path id="Path_403" data-name="Path 403" d="M19,15.333H5.667A1.668,1.668,0,0,1,4,13.667v-10A1.668,1.668,0,0,1,5.667,2H19a1.668,1.668,0,0,1,1.667,1.667v10A1.668,1.668,0,0,1,19,15.333ZM5.667,2.833a.835.835,0,0,0-.833.833v10a.835.835,0,0,0,.833.833H19a.835.835,0,0,0,.833-.833v-10A.835.835,0,0,0,19,2.833Z" transform="translate(-4 -2)" fill="#2c3e50"/>
      </g>
      <g id="Group_1615" data-name="Group 1615" transform="translate(5.833 4.5)">
        <path id="Path_404" data-name="Path 404" d="M8.667,8.333a1.667,1.667,0,1,1,1.667-1.667A1.668,1.668,0,0,1,8.667,8.333Zm0-2.5a.833.833,0,1,0,.833.833A.835.835,0,0,0,8.667,5.833Z" transform="translate(-7 -5)" fill="#2c3e50"/>
      </g>
      <g id="Group_1616" data-name="Group 1616" transform="translate(3.392 6.625)">
        <path id="Path_405" data-name="Path 405" d="M4.487,15.367a.416.416,0,0,1-.295-.711L8.127,10.72a1.281,1.281,0,0,1,1.767,0l1.172,1.172L14.31,8a1.252,1.252,0,0,1,.952-.45h.009a1.249,1.249,0,0,1,.949.436l4.358,5.085a.417.417,0,0,1-.632.542L15.587,8.528a.412.412,0,0,0-.317-.145.442.442,0,0,0-.32.15l-3.536,4.242a.415.415,0,0,1-.3.149A.4.4,0,0,1,10.8,12.8L9.306,11.309a.428.428,0,0,0-.589,0L4.781,15.245a.415.415,0,0,1-.294.122Z" transform="translate(-4.07 -7.55)" fill="#2c3e50"/>
      </g>
    </g>
  </g>
</svg>
