<svg xmlns="http://www.w3.org/2000/svg" width="24" height="24" viewBox="0 0 24 24">
  <g id="Group_1609" data-name="Group 1609" transform="translate(-3633 -1609)">
    <rect id="Rectangle_460" data-name="Rectangle 460" width="24" height="24" transform="translate(3633 1609)" fill="none"/>
    <path id="video-camera" d="M19.793,1.124a.424.424,0,0,0-.419-.008L14.785,3.622v-1.5A2.121,2.121,0,0,0,12.666,0H2.119A2.121,2.121,0,0,0,0,2.119v8.365A2.121,2.121,0,0,0,2.119,12.6H12.666a2.121,2.121,0,0,0,2.119-2.119V9.008l4.589,2.506A.424.424,0,0,0,20,11.142V1.488a.424.424,0,0,0-.208-.364Zm-5.856,9.36a1.272,1.272,0,0,1-1.271,1.271H2.119A1.273,1.273,0,0,1,.848,10.484V2.119A1.273,1.273,0,0,1,2.119.847H12.666a1.273,1.273,0,0,1,1.271,1.271Zm5.216-.057L14.785,8.042V4.587L19.153,2.2Zm0,0" transform="translate(3634.999 1615)" fill="#2c3e50"/>
  </g>
</svg>
