<svg xmlns="http://www.w3.org/2000/svg" width="24" height="24" viewBox="0 0 24 24">
  <g id="Group_1610" data-name="Group 1610" transform="translate(-757 -302)">
    <rect id="Rectangle_461" data-name="Rectangle 461" width="24" height="24" transform="translate(757 302)" fill="none"/>
    <g id="pdf" transform="translate(698 304)">
      <g id="Group_1611" data-name="Group 1611" transform="translate(64)">
        <g id="Group_1610-2" data-name="Group 1610">
          <path id="Path_400" data-name="Path 400" d="M78.878,4.289,74.711.122A.416.416,0,0,0,74.417,0h-8.75A1.668,1.668,0,0,0,64,1.667V18.333A1.668,1.668,0,0,0,65.667,20H77.333A1.668,1.668,0,0,0,79,18.333V4.583A.416.416,0,0,0,78.878,4.289ZM74.833,1.423l2.744,2.744H75.667a.834.834,0,0,1-.833-.833Zm3.333,16.911a.834.834,0,0,1-.833.833H65.667a.834.834,0,0,1-.833-.833V1.667a.834.834,0,0,1,.833-.833H74v2.5A1.668,1.668,0,0,0,75.667,5h2.5Z" transform="translate(-64)" fill="#2c3e50"/>
          <path id="Path_401" data-name="Path 401" d="M135.124,176.231a12.077,12.077,0,0,1-1-.86c-.317-.317-.6-.625-.846-.918a9.329,9.329,0,0,0,.551-2.121c0-1.383-.5-1.667-1.25-1.667-.57,0-1.25.3-1.25,1.707a4,4,0,0,0,1.016,2.254c-.165.5-.359,1.086-.577,1.741-.105.315-.219.606-.339.875-.1.044-.193.088-.285.134-.331.166-.646.315-.937.453-1.331.63-2.209,1.047-2.209,1.869,0,.6.649.967,1.25.967.775,0,1.945-1.035,2.8-2.778a16.576,16.576,0,0,1,2.86-.771,4.78,4.78,0,0,0,1.841,1.049c1.033,0,1.25-.6,1.25-1.1,0-.985-1.126-.985-1.667-.985A9.87,9.87,0,0,0,135.124,176.231Zm-5.874,3.6a.658.658,0,0,1-.417-.134c0-.3.881-.713,1.733-1.117l.165-.078C130.105,179.412,129.486,179.833,129.25,179.833Zm2.917-7.46c0-.873.271-.873.417-.873.295,0,.417,0,.417.833a6.68,6.68,0,0,1-.332,1.3A2.56,2.56,0,0,1,132.167,172.373Zm.319,4.478q.039-.109.076-.22c.155-.464.294-.881.418-1.256q.259.286.559.585c.078.078.272.254.53.474C133.555,176.547,133.009,176.685,132.486,176.851Zm4.681.217c0,.187,0,.265-.387.267a3.071,3.071,0,0,1-.7-.4c.118-.013.2-.02.253-.02C136.949,176.916,137.124,176.976,137.167,177.068Z" transform="translate(-125.5 -163.999)" fill="#2c3e50"/>
        </g>
      </g>
    </g>
  </g>
</svg>
