<svg id="instagram_2_" data-name="instagram (2)" xmlns="http://www.w3.org/2000/svg" width="30" height="30" viewBox="0 0 30 30">
  <path id="Path_298" data-name="Path 298" d="M13.543,5.838a7.7,7.7,0,1,0,7.7,7.7,7.7,7.7,0,0,0-7.7-7.7Zm0,12.694a5,5,0,1,1,5-5A4.995,4.995,0,0,1,13.543,18.532Z" transform="translate(1.462 1.459)" fill="#fff"/>
  <path id="Path_299" data-name="Path 299" d="M21.185.095c-2.76-.129-9.6-.122-12.359,0A8.964,8.964,0,0,0,2.531,2.521C-.354,5.406.015,9.293.015,14.995c0,5.835-.325,9.632,2.516,12.474,2.9,2.895,6.84,2.516,12.474,2.516,5.78,0,7.775,0,9.819-.787C27.6,28.118,29.7,25.634,29.9,21.173c.13-2.761.122-9.6,0-12.359-.247-5.266-3.074-8.46-8.72-8.72Zm4.369,25.465c-1.891,1.891-4.515,1.722-10.585,1.722-6.25,0-8.756.092-10.585-1.741-2.106-2.1-1.725-5.462-1.725-10.566,0-6.906-.709-11.88,6.222-12.235,1.592-.056,2.061-.075,6.07-.075l.056.037c6.661,0,11.887-.7,12.2,6.232.071,1.581.087,2.056.087,6.059,0,6.177.116,8.7-1.742,10.566Z" transform="translate(0 -0.001)" fill="#fff"/>
  <circle id="Ellipse_20" data-name="Ellipse 20" cx="1.799" cy="1.799" r="1.799" transform="translate(21.209 5.194)" fill="#fff"/>
</svg>
