<svg id="linkedin_1_" data-name="linkedin (1)" xmlns="http://www.w3.org/2000/svg" width="30" height="30" viewBox="0 0 30 30">
  <path id="Path_300" data-name="Path 300" d="M27.87,28.106h.008v-11c0-5.382-1.159-9.529-7.451-9.529a6.532,6.532,0,0,0-5.884,3.234h-.087V8.076H8.489V28.1H14.7V18.188c0-2.611.495-5.136,3.729-5.136,3.186,0,3.234,2.98,3.234,5.3v9.751Z" transform="translate(2.122 1.893)" fill="#fff"/>
  <path id="Path_301" data-name="Path 301" d="M.4,7.977h6.22V28.005H.4Z" transform="translate(0.099 1.994)" fill="#fff"/>
  <path id="Path_302" data-name="Path 302" d="M3.6,0A3.619,3.619,0,1,0,7.2,3.6,3.6,3.6,0,0,0,3.6,0Z" fill="#fff"/>
</svg>
