<svg id="play-button" xmlns="http://www.w3.org/2000/svg" width="35.516" height="35.516" viewBox="0 0 35.516 35.516">
  <g id="Group_1694" data-name="Group 1694">
    <g id="Group_1693" data-name="Group 1693">
      <path id="Path_416" data-name="Path 416" d="M17.758,0A17.758,17.758,0,1,0,35.516,17.758,17.778,17.778,0,0,0,17.758,0Zm0,34.037A16.278,16.278,0,1,1,34.037,17.758,16.3,16.3,0,0,1,17.758,34.037Z" fill="#fff"/>
      <path id="Path_417" data-name="Path 417" d="M203.5,156.108l-10.359-6.659a.74.74,0,0,0-1.14.622V163.39a.74.74,0,0,0,1.14.622l10.359-6.659a.74.74,0,0,0,0-1.244Zm-10.019,5.926V151.427l8.25,5.3Z" transform="translate(-178.681 -138.972)" fill="#fff"/>
    </g>
  </g>
</svg>
