<svg xmlns="http://www.w3.org/2000/svg" width="18.068" height="19.711" viewBox="0 0 18.068 19.711">
  <g id="share" transform="translate(0 0)">
    <path id="Path_336" data-name="Path 336" d="M320.006,18.669A2.669,2.669,0,1,1,317.337,16,2.669,2.669,0,0,1,320.006,18.669Zm0,0" transform="translate(-302.554 -15.384)" fill="#3b5999"/>
    <path id="Path_337" data-name="Path 337" d="M301.953,6.57a3.285,3.285,0,1,1,3.285-3.285A3.288,3.288,0,0,1,301.953,6.57Zm0-5.338a2.053,2.053,0,1,0,2.053,2.053,2.056,2.056,0,0,0-2.053-2.053Zm0,0" transform="translate(-287.17 0)" fill="#3b5999"/>
    <path id="Path_338" data-name="Path 338" d="M320.006,360a2.669,2.669,0,1,1-2.669-2.669A2.669,2.669,0,0,1,320.006,360Zm0,0" transform="translate(-302.554 -343.576)" fill="#3b5999"/>
    <path id="Path_339" data-name="Path 339" d="M301.953,347.9a3.285,3.285,0,1,1,3.285-3.285A3.288,3.288,0,0,1,301.953,347.9Zm0-5.338a2.053,2.053,0,1,0,2.053,2.053A2.056,2.056,0,0,0,301.953,342.564Zm0,0" transform="translate(-287.17 -328.192)" fill="#3b5999"/>
    <path id="Path_340" data-name="Path 340" d="M21.339,189.337a2.669,2.669,0,1,1-2.669-2.669A2.669,2.669,0,0,1,21.339,189.337Zm0,0" transform="translate(-15.385 -179.482)" fill="#3b5999"/>
    <path id="Path_341" data-name="Path 341" d="M3.285,177.238a3.285,3.285,0,1,1,3.285-3.285,3.288,3.288,0,0,1-3.285,3.285Zm0-5.338a2.053,2.053,0,1,0,2.053,2.053A2.055,2.055,0,0,0,3.285,171.9Zm0,0" transform="translate(0 -164.098)" fill="#3b5999"/>
    <path id="Path_342" data-name="Path 342" d="M115.171,96.2a.821.821,0,0,1-.407-1.535l7.621-4.345a.821.821,0,1,1,.813,1.427L115.576,96.1A.816.816,0,0,1,115.171,96.2Zm0,0" transform="translate(-109.947 -86.741)" fill="#3b5999"/>
    <path id="Path_343" data-name="Path 343" d="M122.812,272.207a.816.816,0,0,1-.406-.108l-7.621-4.345a.821.821,0,0,1,.813-1.427l7.621,4.345a.821.821,0,0,1-.407,1.535Zm0,0" transform="translate(-109.969 -255.97)" fill="#3b5999"/>
  </g>
</svg>
