<svg xmlns="http://www.w3.org/2000/svg" width="21.348" height="15.533" viewBox="0 0 21.348 15.533">
  <g id="cloud-computing" transform="translate(0 -66.65)">
    <g id="Group_1581" data-name="Group 1581" transform="translate(0 66.65)">
      <path id="Path_344" data-name="Path 344" d="M16.68,82.183H12.1V77.555h1.514A.474.474,0,0,0,14,76.8l-2.944-4.074a.469.469,0,0,0-.763,0L7.346,76.8a.472.472,0,0,0,.384.75H9.243v4.628H4.113A4.588,4.588,0,0,1,0,77.594a4.346,4.346,0,0,1,2.155-3.751,2.913,2.913,0,0,1-.179-1.016,2.954,2.954,0,0,1,2.957-2.957,2.907,2.907,0,0,1,1.012.179A5.921,5.921,0,0,1,17.2,72a5.151,5.151,0,0,1-.515,10.181Z" transform="translate(0 -66.65)" fill="#fff"/>
    </g>
  </g>
</svg>
