<svg id="Group_1451" data-name="Group 1451" xmlns="http://www.w3.org/2000/svg" width="29.999" height="21.249" viewBox="0 0 29.999 21.249">
  <path id="youtube_2_" data-name="youtube (2)" d="M29.335,6.536l.037.245a3.8,3.8,0,0,0-2.585-2.64l-.026-.006C24.423,3.5,15.012,3.5,15.012,3.5s-9.387-.012-11.75.635a3.8,3.8,0,0,0-2.6,2.62l-.006.026A41.816,41.816,0,0,0,.691,21.714l-.039-.247a3.8,3.8,0,0,0,2.585,2.64l.026.006c2.336.636,11.75.636,11.75.636s9.386,0,11.75-.636a3.8,3.8,0,0,0,2.6-2.62l.006-.026A39.08,39.08,0,0,0,30,14.407c0-.091,0-.184,0-.276s0-.186,0-.287a40.319,40.319,0,0,0-.664-7.307ZM12.01,18.688V9.572l7.832,4.565Z" transform="translate(0 -3.5)" fill="#fff"/>
</svg>
